<?xml version="1.0" encoding="UTF-8"?>
<svg xmlns="http://www.w3.org/2000/svg" viewBox="0 0 900 508" width="900" height="508" font-family="sans-serif">
  <title>GDHCN Trust Network Participants by WHO Region</title>
  <rect width="900" height="508" fill="#FFFFFF"/>
  <text x="450" y="32" text-anchor="middle" font-size="16" font-weight="bold" fill="#1A1A1A">GDHCN Trust Network Participants by WHO Region</text>
  <rect x="10" y="50" width="168" height="82" rx="6" ry="6" fill="#E8F5E9" stroke="#388E3C" stroke-width="1.5"/>
  <rect x="10" y="50" width="168" height="28" rx="6" ry="6" fill="#388E3C"/>
  <rect x="10" y="64" width="168" height="14" fill="#388E3C"/>
  <text x="94" y="72" text-anchor="middle" font-size="12" font-weight="bold" fill="#FFFFFF">AFRO – African Region</text>
  <text x="20" y="103" font-size="11" fill="#1B5E20">Benin (BEN)</text>
  <text x="20" y="119" font-size="11" fill="#1B5E20">Togo (TGO)</text>
  <rect x="188" y="50" width="168" height="82" rx="6" ry="6" fill="#FFF3E0" stroke="#E65100" stroke-width="1.5"/>
  <rect x="188" y="50" width="168" height="28" rx="6" ry="6" fill="#E65100"/>
  <rect x="188" y="64" width="168" height="14" fill="#E65100"/>
  <text x="272" y="72" text-anchor="middle" font-size="12" font-weight="bold" fill="#FFFFFF">EMRO – E. Mediterranean</text>
  <text x="198" y="103" font-size="11" fill="#1B5E20">Oman (OMN)</text>
  <text x="198" y="119" font-size="11" fill="#9E9E9E">Saudi Arabia (SAU)</text>
  <rect x="366" y="50" width="168" height="82" rx="6" ry="6" fill="#FCE4EC" stroke="#AD1457" stroke-width="1.5"/>
  <rect x="366" y="50" width="168" height="28" rx="6" ry="6" fill="#AD1457"/>
  <rect x="366" y="64" width="168" height="14" fill="#AD1457"/>
  <text x="450" y="72" text-anchor="middle" font-size="12" font-weight="bold" fill="#FFFFFF">SEARO – South-East Asia</text>
  <text x="376" y="103" font-size="11" fill="#1B5E20">Indonesia (IDN)</text>
  <text x="376" y="119" font-size="11" fill="#1B5E20">Thailand (THA)</text>
  <rect x="544" y="50" width="168" height="98" rx="6" ry="6" fill="#E0F7FA" stroke="#006064" stroke-width="1.5"/>
  <rect x="544" y="50" width="168" height="28" rx="6" ry="6" fill="#006064"/>
  <rect x="544" y="64" width="168" height="14" fill="#006064"/>
  <text x="628" y="72" text-anchor="middle" font-size="12" font-weight="bold" fill="#FFFFFF">WPRO – Western Pacific</text>
  <text x="554" y="103" font-size="11" fill="#1B5E20">Malaysia (MYS)</text>
  <text x="554" y="119" font-size="11" fill="#1B5E20">New Zealand (NZL)</text>
  <text x="554" y="135" font-size="11" fill="#1B5E20">Singapore (SGP)</text>
  <rect x="722" y="50" width="168" height="98" rx="6" ry="6" fill="#F5F5F5" stroke="#757575" stroke-width="1.5"/>
  <rect x="722" y="50" width="168" height="28" rx="6" ry="6" fill="#757575"/>
  <rect x="722" y="64" width="168" height="14" fill="#757575"/>
  <text x="806" y="72" text-anchor="middle" font-size="12" font-weight="bold" fill="#FFFFFF">Other Participants</text>
  <text x="732" y="103" font-size="11" fill="#1B5E20">Faroe Islands (FRO)</text>
  <text x="732" y="119" font-size="11" fill="#1B5E20">WHO (WHO)</text>
  <text x="732" y="135" font-size="11" fill="#9E9E9E">IOM (IOM)</text>
  <rect x="10" y="158" width="352" height="210" rx="6" ry="6" fill="#E3F2FD" stroke="#1565C0" stroke-width="1.5"/>
  <rect x="10" y="158" width="352" height="28" rx="6" ry="6" fill="#1565C0"/>
  <rect x="10" y="172" width="352" height="14" fill="#1565C0"/>
  <text x="186" y="180" text-anchor="middle" font-size="12" font-weight="bold" fill="#FFFFFF">AMRO – The Americas</text>
  <text x="20" y="211" font-size="11" fill="#1B5E20">Brazil (BRA)</text>
  <text x="175" y="211" font-size="11" fill="#9E9E9E">Argentina (ARG)</text>
  <text x="20" y="227" font-size="11" fill="#9E9E9E">Bahamas (BHS)</text>
  <text x="175" y="227" font-size="11" fill="#9E9E9E">Belize (BLZ)</text>
  <text x="20" y="243" font-size="11" fill="#9E9E9E">Barbados (BRB)</text>
  <text x="175" y="243" font-size="11" fill="#9E9E9E">Canada (CAN)</text>
  <text x="20" y="259" font-size="11" fill="#9E9E9E">Chile (CHL)</text>
  <text x="175" y="259" font-size="11" fill="#9E9E9E">Colombia (COL)</text>
  <text x="20" y="275" font-size="11" fill="#9E9E9E">Costa Rica (CRI)</text>
  <text x="175" y="275" font-size="11" fill="#9E9E9E">Dominican Rep. (DOM)</text>
  <text x="20" y="291" font-size="11" fill="#9E9E9E">Ecuador (ECU)</text>
  <text x="175" y="291" font-size="11" fill="#9E9E9E">Guatemala (GTM)</text>
  <text x="20" y="307" font-size="11" fill="#9E9E9E">Honduras (HND)</text>
  <text x="175" y="307" font-size="11" fill="#9E9E9E">Panama (PAN)</text>
  <text x="20" y="323" font-size="11" fill="#9E9E9E">Peru (PER)</text>
  <text x="175" y="323" font-size="11" fill="#9E9E9E">Paraguay (PRY)</text>
  <text x="20" y="339" font-size="11" fill="#9E9E9E">El Salvador (SLV)</text>
  <text x="175" y="339" font-size="11" fill="#9E9E9E">Suriname (SUR)</text>
  <text x="20" y="355" font-size="11" fill="#9E9E9E">Uruguay (URY)</text>
  <text x="175" y="355" font-size="11" fill="#9E9E9E">United States (USA)</text>
  <rect x="372" y="158" width="518" height="194" rx="6" ry="6" fill="#F3E5F5" stroke="#6A1B9A" stroke-width="1.5"/>
  <rect x="372" y="158" width="518" height="28" rx="6" ry="6" fill="#6A1B9A"/>
  <rect x="372" y="172" width="518" height="14" fill="#6A1B9A"/>
  <text x="631" y="180" text-anchor="middle" font-size="12" font-weight="bold" fill="#FFFFFF">EURO – European Region</text>
  <text x="382" y="211" font-size="11" fill="#1B5E20">Albania (ALB)</text>
  <text x="537" y="211" font-size="11" fill="#1B5E20">Andorra (AND)</text>
  <text x="692" y="211" font-size="11" fill="#1B5E20">Armenia (ARM)</text>
  <text x="382" y="227" font-size="11" fill="#1B5E20">Belgium (BEL)</text>
  <text x="537" y="227" font-size="11" fill="#1B5E20">Cyprus (CYP)</text>
  <text x="692" y="227" font-size="11" fill="#1B5E20">Czechia (CZE)</text>
  <text x="382" y="243" font-size="11" fill="#1B5E20">Estonia (EST)</text>
  <text x="537" y="243" font-size="11" fill="#1B5E20">Finland (FIN)</text>
  <text x="692" y="243" font-size="11" fill="#1B5E20">France (FRA)</text>
  <text x="382" y="259" font-size="11" fill="#1B5E20">Iceland (ISL)</text>
  <text x="537" y="259" font-size="11" fill="#1B5E20">Ireland (IRL)</text>
  <text x="692" y="259" font-size="11" fill="#1B5E20">Latvia (LVA)</text>
  <text x="382" y="275" font-size="11" fill="#1B5E20">Lithuania (LTU)</text>
  <text x="537" y="275" font-size="11" fill="#1B5E20">Malta (MLT)</text>
  <text x="692" y="275" font-size="11" fill="#1B5E20">Monaco (MCO)</text>
  <text x="382" y="291" font-size="11" fill="#1B5E20">Netherlands (NLD)</text>
  <text x="537" y="291" font-size="11" fill="#1B5E20">Poland (POL)</text>
  <text x="692" y="291" font-size="11" fill="#1B5E20">Portugal (PRT)</text>
  <text x="382" y="307" font-size="11" fill="#1B5E20">San Marino (SMR)</text>
  <text x="537" y="307" font-size="11" fill="#1B5E20">Slovakia (SVK)</text>
  <text x="692" y="307" font-size="11" fill="#1B5E20">Slovenia (SVN)</text>
  <text x="382" y="323" font-size="11" fill="#1B5E20">Spain (ESP)</text>
  <text x="537" y="323" font-size="11" fill="#1B5E20">Sweden (SWE)</text>
  <text x="692" y="323" font-size="11" fill="#1B5E20">Türkiye (TUR)</text>
  <text x="382" y="339" font-size="11" fill="#9E9E9E">Croatia (HRV)</text>
  <!-- Legend -->
  <rect x="10" y="378" width="880" height="120" rx="4" ry="4" fill="#FAFAFA" stroke="#BDBDBD" stroke-width="1"/>
  <text x="22" y="396" font-size="11" font-weight="bold" fill="#1A1A1A">Participant Status</text>
  <rect x="22" y="404" width="12" height="12" fill="#1B5E20"/>
  <text x="38" y="415" font-size="10" fill="#1A1A1A">In Production</text>
  <rect x="170" y="404" width="12" height="12" fill="#9E9E9E"/>
  <text x="186" y="415" font-size="10" fill="#1A1A1A">In Progress (DEV / UAT)</text>
  <text x="22" y="434" font-size="11" font-weight="bold" fill="#1A1A1A">WHO Regional Offices</text>
  <rect x="22"  y="442" width="12" height="12" fill="#388E3C"/>
  <text x="38"  y="453" font-size="10" fill="#1A1A1A">AFRO – Regional Office for Africa</text>
  <rect x="260" y="442" width="12" height="12" fill="#1565C0"/>
  <text x="276" y="453" font-size="10" fill="#1A1A1A">AMRO – Regional Office for the Americas (PAHO)</text>
  <rect x="580" y="442" width="12" height="12" fill="#E65100"/>
  <text x="596" y="453" font-size="10" fill="#1A1A1A">EMRO – Regional Office for the Eastern Mediterranean</text>
  <rect x="22"  y="459" width="12" height="12" fill="#6A1B9A"/>
  <text x="38"  y="470" font-size="10" fill="#1A1A1A">EURO – Regional Office for Europe</text>
  <rect x="260" y="459" width="12" height="12" fill="#AD1457"/>
  <text x="276" y="470" font-size="10" fill="#1A1A1A">SEARO – Regional Office for South-East Asia</text>
  <rect x="580" y="459" width="12" height="12" fill="#006064"/>
  <text x="596" y="470" font-size="10" fill="#1A1A1A">WPRO – Regional Office for the Western Pacific</text>
  <rect x="22"  y="476" width="12" height="12" fill="#757575"/>
  <text x="38"  y="487" font-size="10" fill="#1A1A1A">Other – Participants that are not WHO Member States or State Parties</text>
  <text x="22" y="504" font-size="9" fill="#9E9E9E" font-style="italic">Source: GDHCN Trust Network Participants. ConceptMap: ConceptMap/ParticipantsToWHORegionalOffices</text>
</svg>
