<?xml version="1.0" encoding="UTF-8"?>
<svg xmlns="http://www.w3.org/2000/svg" viewBox="0 0 900 620" width="900" height="620" font-family="sans-serif">
  <title>GDHCN Trust Network Participants by WHO Region</title>

  <!-- Background -->
  <rect width="900" height="620" fill="#FFFFFF"/>

  <!-- Title -->
  <text x="450" y="32" text-anchor="middle" font-size="16" font-weight="bold" fill="#1A1A1A">GDHCN Trust Network Participants by WHO Region</text>

  <!-- ── AFRO ──────────────────────────────────────────────────── -->
  <rect x="10" y="50" width="200" height="80" rx="6" ry="6" fill="#E8F5E9" stroke="#388E3C" stroke-width="1.5"/>
  <rect x="10" y="50" width="200" height="26" rx="6" ry="0" fill="#388E3C"/>
  <rect x="10" y="64" width="200" height="12" fill="#388E3C"/>
  <text x="110" y="68" text-anchor="middle" font-size="12" font-weight="bold" fill="#FFFFFF">AFRO – African Region</text>
  <text x="20" y="92"  font-size="11" fill="#1A1A1A">Benin (BEN)</text>
  <text x="20" y="108" font-size="11" fill="#1A1A1A">Togo (TGO)</text>

  <!-- ── AMRO ──────────────────────────────────────────────────── -->
  <rect x="220" y="50" width="200" height="80" rx="6" ry="6" fill="#E3F2FD" stroke="#1565C0" stroke-width="1.5"/>
  <rect x="220" y="50" width="200" height="26" rx="6" ry="0" fill="#1565C0"/>
  <rect x="220" y="64" width="200" height="12" fill="#1565C0"/>
  <text x="320" y="68" text-anchor="middle" font-size="12" font-weight="bold" fill="#FFFFFF">AMRO – The Americas</text>
  <text x="230" y="92" font-size="11" fill="#1A1A1A">Brazil (BRA)</text>

  <!-- ── EMRO ──────────────────────────────────────────────────── -->
  <rect x="430" y="50" width="200" height="80" rx="6" ry="6" fill="#FFF3E0" stroke="#E65100" stroke-width="1.5"/>
  <rect x="430" y="50" width="200" height="26" rx="6" ry="0" fill="#E65100"/>
  <rect x="430" y="64" width="200" height="12" fill="#E65100"/>
  <text x="530" y="68" text-anchor="middle" font-size="12" font-weight="bold" fill="#FFFFFF">EMRO – E. Mediterranean</text>
  <text x="440" y="92" font-size="11" fill="#1A1A1A">Oman (OMN)</text>

  <!-- ── SEARO ─────────────────────────────────────────────────── -->
  <rect x="640" y="50" width="250" height="80" rx="6" ry="6" fill="#FCE4EC" stroke="#AD1457" stroke-width="1.5"/>
  <rect x="640" y="50" width="250" height="26" rx="6" ry="0" fill="#AD1457"/>
  <rect x="640" y="64" width="250" height="12" fill="#AD1457"/>
  <text x="765" y="68" text-anchor="middle" font-size="12" font-weight="bold" fill="#FFFFFF">SEARO – South-East Asia</text>
  <text x="650" y="92"  font-size="11" fill="#1A1A1A">Indonesia (IDN)</text>
  <text x="650" y="108" font-size="11" fill="#1A1A1A">Thailand (THA)</text>

  <!-- ── EURO ───────────────────────────────────────────────────── -->
  <rect x="10" y="145" width="620" height="350" rx="6" ry="6" fill="#F3E5F5" stroke="#6A1B9A" stroke-width="1.5"/>
  <rect x="10" y="145" width="620" height="26" rx="6" ry="0" fill="#6A1B9A"/>
  <rect x="10" y="159" width="620" height="12" fill="#6A1B9A"/>
  <text x="320" y="163" text-anchor="middle" font-size="12" font-weight="bold" fill="#FFFFFF">EURO – European Region</text>

  <!-- EURO participants – 4 columns -->
  <!-- Col 1 -->
  <text x="22"  y="188" font-size="11" fill="#1A1A1A">Albania (ALB)</text>
  <text x="22"  y="204" font-size="11" fill="#1A1A1A">Andorra (AND)</text>
  <text x="22"  y="220" font-size="11" fill="#1A1A1A">Armenia (ARM)</text>
  <text x="22"  y="236" font-size="11" fill="#1A1A1A">Belgium (BEL)</text>
  <text x="22"  y="252" font-size="11" fill="#1A1A1A">Cyprus (CYP)</text>
  <text x="22"  y="268" font-size="11" fill="#1A1A1A">Czechia (CZE)</text>
  <!-- Col 2 -->
  <text x="178" y="188" font-size="11" fill="#1A1A1A">Estonia (EST)</text>
  <text x="178" y="204" font-size="11" fill="#1A1A1A">Finland (FIN)</text>
  <text x="178" y="220" font-size="11" fill="#1A1A1A">France (FRA)</text>
  <text x="178" y="236" font-size="11" fill="#1A1A1A">Iceland (ISL)</text>
  <text x="178" y="252" font-size="11" fill="#1A1A1A">Ireland (IRL)</text>
  <text x="178" y="268" font-size="11" fill="#1A1A1A">Latvia (LVA)</text>
  <!-- Col 3 -->
  <text x="334" y="188" font-size="11" fill="#1A1A1A">Lithuania (LTU)</text>
  <text x="334" y="204" font-size="11" fill="#1A1A1A">Malta (MLT)</text>
  <text x="334" y="220" font-size="11" fill="#1A1A1A">Monaco (MCO)</text>
  <text x="334" y="236" font-size="11" fill="#1A1A1A">Netherlands (NLD)</text>
  <text x="334" y="252" font-size="11" fill="#1A1A1A">Poland (POL)</text>
  <text x="334" y="268" font-size="11" fill="#1A1A1A">Portugal (PRT)</text>
  <!-- Col 4 -->
  <text x="490" y="188" font-size="11" fill="#1A1A1A">San Marino (SMR)</text>
  <text x="490" y="204" font-size="11" fill="#1A1A1A">Slovakia (SVK)</text>
  <text x="490" y="220" font-size="11" fill="#1A1A1A">Slovenia (SVN)</text>
  <text x="490" y="236" font-size="11" fill="#1A1A1A">Spain (ESP)</text>
  <text x="490" y="252" font-size="11" fill="#1A1A1A">Sweden (SWE)</text>
  <text x="490" y="268" font-size="11" fill="#1A1A1A">Türkiye (TUR)</text>

  <!-- ── WPRO ───────────────────────────────────────────────────── -->
  <rect x="640" y="145" width="250" height="130" rx="6" ry="6" fill="#E0F7FA" stroke="#006064" stroke-width="1.5"/>
  <rect x="640" y="145" width="250" height="26" rx="6" ry="0" fill="#006064"/>
  <rect x="640" y="159" width="250" height="12" fill="#006064"/>
  <text x="765" y="163" text-anchor="middle" font-size="12" font-weight="bold" fill="#FFFFFF">WPRO – Western Pacific</text>
  <text x="650" y="188" font-size="11" fill="#1A1A1A">Malaysia (MYS)</text>
  <text x="650" y="204" font-size="11" fill="#1A1A1A">New Zealand (NZL)</text>
  <text x="650" y="220" font-size="11" fill="#1A1A1A">Singapore (SGP)</text>

  <!-- ── Other Participants ─────────────────────────────────────── -->
  <rect x="640" y="285" width="250" height="100" rx="6" ry="6" fill="#F5F5F5" stroke="#757575" stroke-width="1.5"/>
  <rect x="640" y="285" width="250" height="26" rx="6" ry="0" fill="#757575"/>
  <rect x="640" y="299" width="250" height="12" fill="#757575"/>
  <text x="765" y="303" text-anchor="middle" font-size="12" font-weight="bold" fill="#FFFFFF">Other Participants</text>
  <text x="650" y="328" font-size="11" fill="#1A1A1A">Faroe Islands (FRO)</text>
  <text x="650" y="344" font-size="11" fill="#1A1A1A">WHO (WHO)</text>
  <text x="650" y="364" font-size="9.5" fill="#555555" font-style="italic">Non-Member States / State Parties</text>

  <!-- ── Legend / Note ─────────────────────────────────────────── -->
  <rect x="10" y="505" width="880" height="105" rx="4" ry="4" fill="#FAFAFA" stroke="#BDBDBD" stroke-width="1"/>
  <text x="22" y="524" font-size="11" font-weight="bold" fill="#1A1A1A">WHO Regional Offices</text>
  <!-- row 1 -->
  <rect x="22"  y="533" width="12" height="12" fill="#388E3C"/>
  <text x="38"  y="544" font-size="10" fill="#1A1A1A">AFRO – Regional Office for Africa</text>
  <rect x="245" y="533" width="12" height="12" fill="#1565C0"/>
  <text x="261" y="544" font-size="10" fill="#1A1A1A">AMRO – Regional Office for the Americas (PAHO)</text>
  <rect x="575" y="533" width="12" height="12" fill="#E65100"/>
  <text x="591" y="544" font-size="10" fill="#1A1A1A">EMRO – Regional Office for the Eastern Mediterranean</text>
  <!-- row 2 -->
  <rect x="22"  y="553" width="12" height="12" fill="#6A1B9A"/>
  <text x="38"  y="564" font-size="10" fill="#1A1A1A">EURO – Regional Office for Europe</text>
  <rect x="245" y="553" width="12" height="12" fill="#AD1457"/>
  <text x="261" y="564" font-size="10" fill="#1A1A1A">SEARO – Regional Office for South-East Asia</text>
  <rect x="575" y="553" width="12" height="12" fill="#006064"/>
  <text x="591" y="564" font-size="10" fill="#1A1A1A">WPRO – Regional Office for the Western Pacific</text>
  <!-- row 3 -->
  <rect x="22"  y="573" width="12" height="12" fill="#757575"/>
  <text x="38"  y="584" font-size="10" fill="#1A1A1A">Other – Participants that are not WHO Member States or State Parties</text>
  <text x="22"  y="601" font-size="9.5" fill="#555555" font-style="italic">Source: GDHCN Trust Network Production Participants. Concept map: ConceptMap/ParticipantsToWHORegionalOffices</text>
</svg>
